<?xml version="1.0" encoding="utf-8"?>
<!-- Generator: Adobe Illustrator 25.4.1, SVG Export Plug-In . SVG Version: 6.00 Build 0)  -->
<svg version="1.1" id="Layer_1" xmlns="http://www.w3.org/2000/svg" xmlns:xlink="http://www.w3.org/1999/xlink" x="0px" y="0px"
	 viewBox="0 0 500 500" style="enable-background:new 0 0 500 500;" xml:space="preserve">
<style type="text/css">
	.st0{fill:#231815;}
	.st1{fill:#FFFFFF;}
</style>
<g id="图层_1">
	<path class="st0" d="M306.6,180.9c-0.4-7.8-11-8.8-14.1-3l-1-0.4c-0.1-2.8-0.5-5.6-0.9-8.3c5.5,1.8,10.8,4.2,15.8,7.2
		C306.5,177.9,306.6,179.3,306.6,180.9z"/>
	<path class="st0" d="M291.6,181.3c0-0.3,0-0.6,0-0.8c0,0,0.1,0,0.1,0C291.7,180.8,291.6,181.1,291.6,181.3z"/>
	<path class="st0" d="M204,205.7c-2.3-0.7-4.6-1.3-6.9-1.8l0.4-2c2.8-1.1,5.7-2.3,8.5-3.4l2,1.8C206.6,202,205.3,203.8,204,205.7z"
		/>
	<path class="st0" d="M292.5,177.9c4.7,1.9,9.2,4.2,13.4,7c-0.4,0.8-1,1.5-1.6,2c-1.3-0.8-2.7-1.6-4-2.4c-1-0.6-2.1-1.1-3.1-1.6
		s-1.8-0.9-2.8-1.3s-1.7-0.7-2.6-1.1C291.8,179.6,292,178.7,292.5,177.9z"/>
	<path class="st0" d="M129.6,235.4c0.8-1.3,1.6-2.5,2.6-3.8l0.1-0.1c-0.9,1.4-1.7,2.8-2.5,4.2L129.6,235.4z"/>
	<path class="st1" d="M307.4,325.9c-0.4-3.6-3.5-6.4-7.2-6.3H211c-3.7-0.1-6.8,2.6-7.1,6.3H192c-0.4-3.6-3.5-6.4-7.1-6.3
		c-24.5-0.3-46.4-16.6-52.8-40.4c-3.3-12.2-2.2-25.1,3-36.6c2.2-4.9,5-9.4,8.5-13.4c4-4.7,8.8-8.7,14.1-11.8c12.4-7,27-9,40.7-5.5
		c1.2,0.3,2.5,0.6,3.7,1c3.3,1,6.6-0.7,8.5-3.5c14.6-21.5,41.4-33.1,67.2-28.1c4.7,0.9,9.4,2.4,13.8,4.3c0.9,0.4,1.7,0.8,2.6,1.2
		s1.9,1,2.9,1.5c3.1,1.7,6,3.6,8.8,5.7c10.8,8.3,18.7,19.7,22.9,32.6c0.7,2.5,2.7,4.5,5.2,5.2c1.6,0.3,3.2,0.8,4.8,1.3
		c20,6.6,33.5,26.1,30.8,47.7c-2.8,22.1-22,38.4-44,38.7c-3.6-0.1-6.7,2.7-7.1,6.3L307.4,325.9z"/>
	<path class="st0" d="M201,197.1c-1.2,1.5-2.4,3.1-3.5,4.8l-0.4,2c-21.3-4.3-43.3,2.8-58,18.8c-1.3-2.3-2.5-4.6-3.6-7
		C152.7,198.7,177.4,191.7,201,197.1z"/>
	<path class="st0" d="M291.7,180.6c0.9,0.3,1.8,0.7,2.6,1.1s1.9,0.8,2.8,1.3s2.1,1,3.1,1.6c1.4,0.8,2.7,1.5,4,2.4
		c-2.1,1.6-4.8,2.1-7.3,1.4c-1-0.5-1.9-1-2.9-1.5c-1.6-1.4-2.5-3.4-2.4-5.5C291.6,181.1,291.6,180.8,291.7,180.6z"/>
	<path class="st0" d="M211,327.1h-18.9c0-0.4-0.2-0.8-0.1-1.2l126.3,0c0.1,0.4-0.1,0.8-0.1,1.2L211,327.1z"/>
	<path class="st0" d="M343.1,222.7l-5.2-5.2c1.3,0.3,2.5,0.6,3.7,0.9C342.1,219.8,342.6,221.2,343.1,222.7z"/>
	<path class="st0" d="M334.2,225.6c-4.5-13.8-13.1-26-24.6-34.9c-1.1-0.8-2.2-1.6-3.3-2.4c0.1-1,0.1-2,0.2-3
		c14,9.4,24.3,23.3,29.3,39.4c18.2,3.7,33,16.9,38.8,34.5c-6.5-14.2-19.4-24.5-34.7-27.7c-0.2,0-0.4-0.1-0.6-0.2
		C336.6,230.6,334.6,228.3,334.2,225.6z"/>
	<path class="st0" d="M306.3,188.3c-0.7-0.5-1.4-0.9-2.1-1.4c0.7-0.5,1.2-1.2,1.6-2l0.6,0.4C306.5,186.3,306.4,187.3,306.3,188.3z"
		/>
	<path class="st0" d="M296.9,188.3c2.5,0.7,5.2,0.2,7.3-1.4c0.7,0.5,1.4,0.9,2.1,1.4c-0.1,1.9-0.4,3.9-0.6,5.8
		C302.9,191.9,300,190,296.9,188.3z"/>
	<path class="st0" d="M291.5,177.5l1,0.4c-0.4,0.8-0.7,1.7-0.8,2.7c0,0-0.1,0-0.1,0C291.6,179.5,291.6,178.5,291.5,177.5z"/>
	<path class="st0" d="M179.5,325.9c4.2,0,8.3,0,12.5,0c0.1,0.4,0.1,0.8,0.1,1.2h-7.2c-6.2,0-12.4-0.9-18.4-2.8
		C170.7,325.3,175.1,325.9,179.5,325.9z"/>
	<path class="st0" d="M125.3,228.5c2.9-4.7,6.3-9,10.2-12.9c1.1,2.4,2.3,4.7,3.6,7c-2.5,2.7-4.8,5.7-6.8,8.9l-0.1,0.1
		c-0.9,1.2-1.8,2.5-2.6,3.8c-0.9-1.3-1.8-2.7-2.7-4.1C126.4,230.4,125.9,229.5,125.3,228.5z"/>
	<path class="st0" d="M306.6,181.3L306.6,181.3c0,0.2,0,0.4,0,0.5v0.1c-0.1,1-0.3,2-0.8,2.9c-4.2-2.8-8.7-5.1-13.4-7
		c3.1-5.8,13.8-4.8,14.1,3C306.6,181,306.6,181.2,306.6,181.3z"/>
	<path class="st0" d="M125.7,242.9c-7.8,17.7-6.5,38.1,3.4,54.6c8.3,13.6,21.8,23.3,37.4,26.8c6,1.8,12.2,2.8,18.4,2.8h7.2
		c0,3.8-2.4,7.6-7.2,7.5c-17.6-0.1-34.5-6.8-47.4-18.6c-23.3-21.4-28.8-57.1-13.7-84.8c0.5-0.9,1-1.8,1.6-2.7c0.5,1,1.1,1.9,1.7,2.9
		c0.8,1.4,1.7,2.7,2.7,4.1C128.2,237.8,126.8,240.3,125.7,242.9z"/>
	<path class="st0" d="M143.5,229.2c-3.4,4.1-6.3,8.6-8.5,13.4c-1.8-2.2-3.5-4.5-5.1-6.9c0.8-1.4,1.6-2.9,2.5-4.2
		c0.8-1.1,1.6-2.1,2.5-3.1c1.5-1.8,3.1-3.4,4.8-5C140.8,225.4,142.1,227.3,143.5,229.2z"/>
	<path class="st0" d="M143.5,229.2c-1.4-1.9-2.6-3.8-3.8-5.7c15.5-14.1,37.9-18.8,58.3-12.5l0.5,0.1l-0.2,0.8
		c-13.8-3.5-28.4-1.5-40.7,5.5C152.3,220.5,147.5,224.5,143.5,229.2z"/>
	<path class="st0" d="M122.6,264.9c0-10.2,2.5-20.2,7.2-29.1c1.6,2.4,3.3,4.6,5.1,6.9c-5.2,11.5-6.3,24.4-3,36.6
		c6.5,23.8,28.3,40.1,52.8,40.4c3.7-0.1,6.8,2.6,7.1,6.3c-4.2,0-8.3,0-12.5,0c-4.4,0-8.7-0.6-13-1.5
		C140.4,316.3,122.6,292.2,122.6,264.9z"/>
	<path class="st0" d="M341,324.7c-6.4,1.3-12.9,1.2-19.5,1.2h-3.2c0.4-3.6,3.5-6.3,7.1-6.3c22-0.3,41.2-16.6,44-38.7
		c2.7-21.6-10.9-41.1-30.8-47.7l0.7-1.9c0.2,0.1,0.4,0.1,0.6,0.2c15.3,3.2,28.2,13.5,34.7,27.7c9,27.2-5.8,56.4-33,65.4
		C341.5,324.6,341.3,324.7,341,324.7L341,324.7z"/>
	<path class="st0" d="M211,327.1l107.2,0c0,3.8,12.1,7.5,7.2,7.5l-140.6,0c-4.8,0,7.2-3.8,7.2-7.5H211z"/>
	<path class="st0" d="M198.5,211.1c3.4,0.8,6.7-1.1,8.6-3.8c15.8-23.2,44.6-35.7,72.3-30.3c4.2,0.8,8.2,2,12.2,3.5
		c0,0.3,0,0.6,0,0.8c0,1.4-0.1,2.9-0.2,4.3c-4.4-1.9-9-3.4-13.8-4.3c-25.7-5-52.5,6.6-67.1,28.1c-1.8,2.7-5.1,4.5-8.5,3.5
		c-1.2-0.4-2.5-0.7-3.7-1L198.5,211.1z"/>
	<path class="st0" d="M305.9,184.9c0.4-0.9,0.7-1.9,0.8-2.9c0,1.1,0,2.2-0.1,3.3L305.9,184.9z"/>
	<path class="st0" d="M341,324.7c-5,1.6-10.3,2.4-15.6,2.4h-7.2c0-0.4,0-0.8,0.1-1.2h3.2C328.2,325.9,334.7,326,341,324.7z"/>
	<path class="st0" d="M325.5,327.1c5.3,0,10.5-0.8,15.6-2.4c2.4-0.5,4.8-1.1,7.1-2c19.4-7.4,31.5-27,30.4-47.6
		c-0.3-5.5-1.6-10.9-3.9-16c-5.8-17.6-20.6-30.8-38.8-34.5c-5-16.1-15.3-30-29.3-39.4c0-1.1,0.1-2.2,0.1-3.3v-0.1c0-0.1,0-0.3,0-0.4
		v-0.1c0-0.2,0-0.3,0-0.5c0-1.5-0.1-3-0.2-4.5c16.1,9.7,28.4,24.5,35.1,42c-1.2-0.3-2.5-0.7-3.7-0.9l5.2,5.2c-0.5-1.4-1-2.9-1.5-4.3
		c27.4,7.9,46.3,35.2,42.7,63.9c-3.8,29.7-28.9,52-58.8,52.4c-4.9,0.1-7.3-3.7-7.2-7.5L325.5,327.1z"/>
	<path class="st0" d="M122.6,264.9c0,27.3,17.8,51.4,43.9,59.5c-15.6-3.5-29.1-13.2-37.4-26.8c-9.9-16.6-11.2-37-3.4-54.6
		c1.1-2.6,2.4-5,3.9-7.4l0.2,0.3C125.1,244.7,122.6,254.7,122.6,264.9z"/>
	<path class="st0" d="M341,324.7c27.3-8.6,42.4-37.7,33.8-65c-0.1-0.2-0.1-0.4-0.2-0.6c2.3,5.1,3.6,10.5,3.9,16
		c1.1,20.5-11,40.2-30.4,47.6C345.9,323.6,343.5,324.3,341,324.7z"/>
	<path class="st0" d="M291.5,185.7c0.1-1.4,0.1-2.8,0.2-4.3c-0.1,2.1,0.8,4.1,2.4,5.5C293.2,186.4,292.3,186,291.5,185.7z"/>
	<path class="st0" d="M139.6,223.5c-1.7,1.6-3.3,3.2-4.8,5c-0.9,1-1.7,2-2.5,3.1c2-3.2,4.3-6.1,6.8-8.9L139.6,223.5z"/>
	<path class="st0" d="M325.4,319.6c3.7-0.1-7.5,2.6-7.1,6.3l-126.3,0c0.4-3.6-10.8-6.4-7.1-6.3L325.4,319.6z"/>
	<path class="st0" d="M201,197.1c1.7,0.4,3.3,0.8,5,1.3c-2.8,1.2-5.6,2.3-8.5,3.4C198.7,200.2,199.8,198.7,201,197.1z"/>
	<path class="st0" d="M290.6,169.2c0.4,2.7,0.7,5.5,0.9,8.3c-29.8-11.3-63.5-2.1-83.5,22.8l-2-1.8c-1.6-0.5-3.3-0.9-5-1.3
		c18.7-24.1,49.2-35.8,79.2-30.5C283.7,167.3,287.2,168.1,290.6,169.2z"/>
	<path class="st0" d="M197.1,203.9c2.3,0.5,4.6,1.1,6.9,1.8c1.2-1.9,2.6-3.7,4-5.4c20-24.9,53.7-34,83.5-22.8c0,1,0.1,2,0.1,3
		c-3.9-1.5-8-2.7-12.2-3.5c-27.7-5.4-56.6,7.1-72.3,30.3c-1.9,2.8-5.2,4.6-8.6,3.8l-0.5-0.1c-20.5-6.3-42.8-1.7-58.4,12.5l-0.5-0.8
		C153.9,206.6,175.9,199.5,197.1,203.9L197.1,203.9z"/>
	<path class="st0" d="M306.6,181.9c0-0.1,0-0.3,0-0.4C306.6,181.6,306.6,181.7,306.6,181.9z"/>
	<path class="st0" d="M339.3,231.3l-0.7,1.9c-1.6-0.5-3.2-1-4.8-1.3c-2.5-0.7-4.5-2.7-5.2-5.2c-4.1-12.9-12.1-24.3-22.9-32.6
		c0.3-1.9,0.5-3.8,0.6-5.8c1.1,0.8,2.2,1.6,3.3,2.4c11.5,8.9,20.1,21,24.6,34.9C334.6,228.3,336.6,230.6,339.3,231.3z"/>
</g>
</svg>
