<?xml version="1.0" encoding="utf-8"?>
<!-- Generator: Adobe Illustrator 25.4.1, SVG Export Plug-In . SVG Version: 6.00 Build 0)  -->
<svg version="1.1" id="Layer_1" xmlns="http://www.w3.org/2000/svg" xmlns:xlink="http://www.w3.org/1999/xlink" x="0px" y="0px"
	 viewBox="0 0 64 64" style="enable-background:new 0 0 64 64;" xml:space="preserve">
<style type="text/css">
	.st0{fill:url(#SVGID_1_);stroke:#F8AF18;stroke-width:0.5;stroke-miterlimit:10;}
	.st1{fill:none;stroke:#FBBF24;stroke-width:2;stroke-linecap:round;stroke-miterlimit:10;}
	
		.st2{fill:url(#SVGID_00000124878447271023275810000000159993916434711173_);stroke:#E6EFFC;stroke-width:0.5;stroke-miterlimit:10;}
	
		.st3{fill:none;stroke:url(#SVGID_00000128476606903211590300000002511382060354537103_);stroke-width:2;stroke-linecap:round;stroke-miterlimit:10;}
	
		.st4{fill:none;stroke:url(#SVGID_00000093174995885924480020000007626416355770269859_);stroke-width:2;stroke-linecap:round;stroke-miterlimit:10;}
	
		.st5{fill:none;stroke:url(#SVGID_00000134209034804464076380000013562530879353499033_);stroke-width:2;stroke-linecap:round;stroke-miterlimit:10;}
</style>
<linearGradient id="SVGID_1_" gradientUnits="userSpaceOnUse" x1="16.4995" y1="46.3308" x2="21.5005" y2="37.6692" gradientTransform="matrix(1 0 0 -1 0 66)">
	<stop  offset="0" style="stop-color:#FBBF24"/>
	<stop  offset="0.45" style="stop-color:#FBBF24"/>
	<stop  offset="1" style="stop-color:#F59E0B"/>
</linearGradient>
<circle class="st0" cx="19" cy="24" r="5"/>
<path class="st1" d="M19,15.7v-3.2 M19,35.5v-3.2 M24.9,18.1l2.2-2.2 M10.9,32.1l2.2-2.2 M13.1,18.1l-2.2-2.2 M27.1,32.1l-2.2-2.2
	 M7.5,24h3.2 M30.5,24h-3.2"/>
<linearGradient id="SVGID_00000062162004850448304190000005558454664394729896_" gradientUnits="userSpaceOnUse" x1="22.5865" y1="44.0348" x2="39.2154" y2="15.214" gradientTransform="matrix(1 0 0 -1 0 66)">
	<stop  offset="0" style="stop-color:#F3F7FE"/>
	<stop  offset="0.45" style="stop-color:#F3F7FE"/>
	<stop  offset="1" style="stop-color:#DEEAFB"/>
</linearGradient>
<path style="fill:url(#SVGID_00000062162004850448304190000005558454664394729896_);stroke:#E6EFFC;stroke-width:0.5;stroke-miterlimit:10;" d="
	M46.5,31.5h-0.3c1.4-5.6-2.1-11.3-7.7-12.7c-4.4-1.1-9,0.8-11.4,4.7c-3.3-2-7.6-0.9-9.6,2.5c-0.6,1.1-1,2.3-1,3.5
	c0,0.4,0,0.8,0.1,1.1c-4.1,0.8-6.7,4.7-5.9,8.8c0.7,3.5,3.7,6,7.3,6.1c0.2,0,0.3,0,0.5,0h28c3.9,0,7-3.1,7-7S50.4,31.5,46.5,31.5z"
	/>
<linearGradient id="SVGID_00000011726465375143878700000010721916489723864978_" gradientUnits="userSpaceOnUse" x1="22.5291" y1="18.0515" x2="25.4709" y2="12.9485" gradientTransform="matrix(1 0 0 -1 0 66)">
	<stop  offset="0" style="stop-color:#4286EE"/>
	<stop  offset="0.45" style="stop-color:#4286EE"/>
	<stop  offset="1" style="stop-color:#0950BC"/>
</linearGradient>
<path style="fill:none;stroke:url(#SVGID_00000011726465375143878700000010721916489723864978_);stroke-width:2;stroke-linecap:round;stroke-miterlimit:10;" d="
	M24.4,48L23.6,53"/>
<linearGradient id="SVGID_00000121277260555056182580000005780422724187198138_" gradientUnits="userSpaceOnUse" x1="29.5291" y1="18.0515" x2="32.4709" y2="12.9485" gradientTransform="matrix(1 0 0 -1 0 66)">
	<stop  offset="0" style="stop-color:#4286EE"/>
	<stop  offset="0.45" style="stop-color:#4286EE"/>
	<stop  offset="1" style="stop-color:#0950BC"/>
</linearGradient>
<path style="fill:none;stroke:url(#SVGID_00000121277260555056182580000005780422724187198138_);stroke-width:2;stroke-linecap:round;stroke-miterlimit:10;" d="
	M31.4,48L30.6,53"/>
<linearGradient id="SVGID_00000120557519901029942410000001573519948939044494_" gradientUnits="userSpaceOnUse" x1="36.5291" y1="18.0515" x2="39.4709" y2="12.9485" gradientTransform="matrix(1 0 0 -1 0 66)">
	<stop  offset="0" style="stop-color:#4286EE"/>
	<stop  offset="0.45" style="stop-color:#4286EE"/>
	<stop  offset="1" style="stop-color:#0950BC"/>
</linearGradient>
<path style="fill:none;stroke:url(#SVGID_00000120557519901029942410000001573519948939044494_);stroke-width:2;stroke-linecap:round;stroke-miterlimit:10;" d="
	M38.4,48L37.6,53"/>
</svg>
