<?xml version="1.0" encoding="utf-8"?>
<!-- Generator: Adobe Illustrator 25.4.1, SVG Export Plug-In . SVG Version: 6.00 Build 0)  -->
<svg version="1.1" id="Layer_1" xmlns="http://www.w3.org/2000/svg" xmlns:xlink="http://www.w3.org/1999/xlink" x="0px" y="0px"
	 viewBox="0 0 64 64" style="enable-background:new 0 0 64 64;" xml:space="preserve">
<style type="text/css">
	.st0{fill:url(#SVGID_1_);stroke:#72B9D5;stroke-width:0.5;stroke-linecap:round;stroke-linejoin:round;}
	
		.st1{fill:url(#SVGID_00000083084719515678677590000010158109337899976069_);stroke:#E6EFFC;stroke-width:0.5;stroke-miterlimit:10;}
	
		.st2{fill:none;stroke:url(#SVGID_00000111871474978257848950000016460581267433554612_);stroke-width:2;stroke-linecap:round;stroke-miterlimit:10;}
	
		.st3{fill:none;stroke:url(#SVGID_00000072971855859381936300000011064076297231613063_);stroke-width:2;stroke-linecap:round;stroke-miterlimit:10;}
	
		.st4{fill:none;stroke:url(#SVGID_00000129898363574838020020000010476464464963224969_);stroke-width:2;stroke-linecap:round;stroke-miterlimit:10;}
</style>
<linearGradient id="SVGID_1_" gradientUnits="userSpaceOnUse" x1="13.6704" y1="50.4822" x2="24.2404" y2="32.1822" gradientTransform="matrix(1 0 0 -1 0 66)">
	<stop  offset="0" style="stop-color:#86C3DB"/>
	<stop  offset="0.45" style="stop-color:#86C3DB"/>
	<stop  offset="1" style="stop-color:#5EAFCF"/>
</linearGradient>
<path class="st0" d="M29.3,26.7c-5.9,0-10.6-4.7-10.7-10.5c0,0,0,0,0,0c0-0.9,0.1-1.8,0.4-2.6c-5.8,0.7-9.9,6-9.2,11.8
	s6,9.9,11.8,9.2c4.3-0.5,7.8-3.6,8.9-7.8C30.1,26.7,29.7,26.7,29.3,26.7z"/>
<linearGradient id="SVGID_00000029754133360216510990000014426433701735887006_" gradientUnits="userSpaceOnUse" x1="22.5865" y1="44.0348" x2="39.2154" y2="15.214" gradientTransform="matrix(1 0 0 -1 0 66)">
	<stop  offset="0" style="stop-color:#F3F7FE"/>
	<stop  offset="0.45" style="stop-color:#F3F7FE"/>
	<stop  offset="1" style="stop-color:#DEEAFB"/>
</linearGradient>
<path style="fill:url(#SVGID_00000029754133360216510990000014426433701735887006_);stroke:#E6EFFC;stroke-width:0.5;stroke-miterlimit:10;" d="
	M46.5,31.5h-0.3c1.4-5.6-2.1-11.3-7.7-12.7c-4.4-1.1-9,0.8-11.4,4.7c-3.3-2-7.6-0.9-9.6,2.5c-0.6,1.1-1,2.3-1,3.5
	c0,0.4,0,0.8,0.1,1.1c-4.1,0.8-6.7,4.7-5.9,8.8c0.7,3.5,3.7,6,7.3,6.1c0.2,0,0.3,0,0.5,0h28c3.9,0,7-3.1,7-7S50.4,31.5,46.5,31.5z"
	/>
<linearGradient id="SVGID_00000118368793325450971600000003475779850501835928_" gradientUnits="userSpaceOnUse" x1="22.5291" y1="18.0515" x2="25.4709" y2="12.9485" gradientTransform="matrix(1 0 0 -1 0 66)">
	<stop  offset="0" style="stop-color:#4286EE"/>
	<stop  offset="0.45" style="stop-color:#4286EE"/>
	<stop  offset="1" style="stop-color:#0950BC"/>
</linearGradient>
<path style="fill:none;stroke:url(#SVGID_00000118368793325450971600000003475779850501835928_);stroke-width:2;stroke-linecap:round;stroke-miterlimit:10;" d="
	M24.4,48L23.6,53"/>
<linearGradient id="SVGID_00000078723718578659507420000001023650418931071392_" gradientUnits="userSpaceOnUse" x1="29.5291" y1="18.0515" x2="32.4709" y2="12.9485" gradientTransform="matrix(1 0 0 -1 0 66)">
	<stop  offset="0" style="stop-color:#4286EE"/>
	<stop  offset="0.45" style="stop-color:#4286EE"/>
	<stop  offset="1" style="stop-color:#0950BC"/>
</linearGradient>
<path style="fill:none;stroke:url(#SVGID_00000078723718578659507420000001023650418931071392_);stroke-width:2;stroke-linecap:round;stroke-miterlimit:10;" d="
	M31.4,48L30.6,53"/>
<linearGradient id="SVGID_00000044172637973813895570000001626592537213463699_" gradientUnits="userSpaceOnUse" x1="36.5291" y1="18.0515" x2="39.4709" y2="12.9485" gradientTransform="matrix(1 0 0 -1 0 66)">
	<stop  offset="0" style="stop-color:#4286EE"/>
	<stop  offset="0.45" style="stop-color:#4286EE"/>
	<stop  offset="1" style="stop-color:#0950BC"/>
</linearGradient>
<path style="fill:none;stroke:url(#SVGID_00000044172637973813895570000001626592537213463699_);stroke-width:2;stroke-linecap:round;stroke-miterlimit:10;" d="
	M38.4,48L37.6,53"/>
</svg>
