<?xml version="1.0" encoding="utf-8"?>
<!-- Generator: Adobe Illustrator 25.4.1, SVG Export Plug-In . SVG Version: 6.00 Build 0)  -->
<svg version="1.1" id="Layer_1" xmlns="http://www.w3.org/2000/svg" xmlns:xlink="http://www.w3.org/1999/xlink" x="0px" y="0px"
	 viewBox="0 0 64 64" style="enable-background:new 0 0 64 64;" xml:space="preserve">
<style type="text/css">
	.st0{fill:url(#SVGID_1_);stroke:#E6EFFC;stroke-width:0.5;stroke-miterlimit:10;}
	
		.st1{fill:none;stroke:url(#SVGID_00000178899772752428355140000016443314991390614680_);stroke-width:2;stroke-linecap:round;stroke-miterlimit:10;}
	
		.st2{fill:none;stroke:url(#SVGID_00000029006568505907432210000001279016475835606929_);stroke-width:2;stroke-linecap:round;stroke-miterlimit:10;}
	
		.st3{fill:none;stroke:url(#SVGID_00000104685816940056063660000005874256111361508499_);stroke-width:2;stroke-linecap:round;stroke-miterlimit:10;}
</style>
<linearGradient id="SVGID_1_" gradientUnits="userSpaceOnUse" x1="22.5865" y1="44.0348" x2="39.2154" y2="15.214" gradientTransform="matrix(1 0 0 -1 0 66)">
	<stop  offset="0" style="stop-color:#F3F7FE"/>
	<stop  offset="0.45" style="stop-color:#F3F7FE"/>
	<stop  offset="1" style="stop-color:#DEEAFB"/>
</linearGradient>
<path class="st0" d="M46.5,31.5h-0.3c1.4-5.6-2.1-11.3-7.7-12.7c-4.4-1.1-9,0.8-11.4,4.7c-3.3-2-7.6-0.9-9.6,2.5
	c-0.6,1.1-1,2.3-1,3.5c0,0.4,0,0.8,0.1,1.1c-4.1,0.8-6.7,4.7-5.9,8.8c0.7,3.5,3.7,6,7.3,6.1c0.2,0,0.3,0,0.5,0h28c3.9,0,7-3.1,7-7
	S50.4,31.5,46.5,31.5z"/>
<linearGradient id="SVGID_00000142165881851109447310000003496279213200971427_" gradientUnits="userSpaceOnUse" x1="22.5291" y1="18.0515" x2="25.4709" y2="12.9485" gradientTransform="matrix(1 0 0 -1 0 66)">
	<stop  offset="0" style="stop-color:#4286EE"/>
	<stop  offset="0.45" style="stop-color:#4286EE"/>
	<stop  offset="1" style="stop-color:#0950BC"/>
</linearGradient>
<path style="fill:none;stroke:url(#SVGID_00000142165881851109447310000003496279213200971427_);stroke-width:2;stroke-linecap:round;stroke-miterlimit:10;" d="
	M24.4,48L23.6,53"/>
<linearGradient id="SVGID_00000047752265683877431710000005624372134438851745_" gradientUnits="userSpaceOnUse" x1="29.5291" y1="18.0515" x2="32.4709" y2="12.9485" gradientTransform="matrix(1 0 0 -1 0 66)">
	<stop  offset="0" style="stop-color:#4286EE"/>
	<stop  offset="0.45" style="stop-color:#4286EE"/>
	<stop  offset="1" style="stop-color:#0950BC"/>
</linearGradient>
<path style="fill:none;stroke:url(#SVGID_00000047752265683877431710000005624372134438851745_);stroke-width:2;stroke-linecap:round;stroke-miterlimit:10;" d="
	M31.4,48L30.6,53"/>
<linearGradient id="SVGID_00000075883043032514238010000014174121454969027209_" gradientUnits="userSpaceOnUse" x1="36.5291" y1="18.0515" x2="39.4709" y2="12.9485" gradientTransform="matrix(1 0 0 -1 0 66)">
	<stop  offset="0" style="stop-color:#4286EE"/>
	<stop  offset="0.45" style="stop-color:#4286EE"/>
	<stop  offset="1" style="stop-color:#0950BC"/>
</linearGradient>
<path style="fill:none;stroke:url(#SVGID_00000075883043032514238010000014174121454969027209_);stroke-width:2;stroke-linecap:round;stroke-miterlimit:10;" d="
	M38.4,48L37.6,53"/>
</svg>
